<svg id="eQDtG37sl1y1" xmlns="http://www.w3.org/2000/svg" xmlns:xlink="http://www.w3.org/1999/xlink" viewBox="0 0 256 256" shape-rendering="geometricPrecision" text-rendering="geometricPrecision" project-id="d2f3113ba8be4467ba982b694bb64786" export-id="bbf433415347406e83cedb5ec92ad30a" cached="false" width="256" height="256"><path d="M0,128C0,57.30755,57.30755,0,128,0s128,57.30755,128,128-57.30755,128-128,128-128-57.30755-128-128Zm128,75c41.42136,0,75-33.57864,75-75s-33.57864-75-75-75-75,33.57864-75,75s33.57864,75,75,75Z" opacity="0.75" stroke-width="0"/><ellipse rx="5.437737" ry="6.134794" transform="matrix(4.413601 0 0 3.912112 128 128)" opacity="0.75" stroke-width="0"/><path d="M103.5,229.29375c0-13.53098,10.96902-24.5,24.5-24.5s24.5,10.96902,24.5,24.5-10.96902,24.5-24.5,24.5-24.5-10.96902-24.5-24.5Zm24.5,24c13.25483,0,24-10.74517,24-24s-10.74517-24-24-24-24,10.74517-24,24s10.74517,24,24,24Z" fill="#fff" stroke-width="0"/></svg>
